<svg xmlns="http://www.w3.org/2000/svg">
    <defs>
        <symbol id="icon-plates" viewBox="-5.0 -10.0 110.0 135.0">
            <path d="m66.352 65.344c-0.50391 3.8086-1.668 7.4102-3.4023 10.672h19.535c6.0156 0 10.941-4.7344 11.25-10.672z"/>
            <path d="m61.051 79.141c-3.1484 4.5625-7.4688 8.2422-12.508 10.656h33.945c6.0078 0 10.93-4.7266 11.25-10.656z"/>
            <path d="m82.484 37.781h-26.148c3.2344 2.9688 5.8633 6.582 7.6523 10.656h18.5c6.0078 0 10.93-4.7266 11.25-10.656z"/>
            <path d="m47.621 20.859h34.957c5.9648-0.046875 10.844-4.7578 11.156-10.656h-57.27c0.3125 5.8984 5.1914 10.609 11.156 10.656z"/>
            <path d="m82.484 62.219c6.0078 0 10.93-4.7266 11.25-10.656h-28.559c0.96094 3.0273 1.4883 6.25 1.4883 9.5938 0 0.35938-0.042968 0.70703-0.054687 1.0625z"/>
            <path d="m34.891 32.512c-15.793 0-28.641 12.852-28.641 28.645s12.852 28.645 28.641 28.645c15.793 0 28.645-12.852 28.645-28.645s-12.852-28.645-28.645-28.645zm0 49.363c-11.426 0-20.719-9.2969-20.719-20.719 0-11.426 9.2969-20.719 20.719-20.719 11.426 0 20.719 9.2969 20.719 20.719 0 11.426-9.2969 20.719-20.719 20.719z"/>
            <path d="m34.891 43.559c-9.7031 0-17.594 7.8945-17.594 17.594 0 9.7031 7.8945 17.594 17.594 17.594 9.7031 0 17.594-7.8945 17.594-17.594 0-9.7031-7.8945-17.594-17.594-17.594z"/>
            <path d="m82.484 23.988h-34.77c-0.03125 0-0.058594-0.003906-0.089844-0.003906h-11.156c0.10547 2.0078 0.76172 3.9141 1.875 5.5977 5.1445 0.55859 9.9219 2.3516 14.031 5.0742h30.109c6.0156 0 10.941-4.7344 11.25-10.672h-11.16c-0.03125 0-0.058594 0.003906-0.089844 0.003906z"/>
        </symbol>
        <symbol id="icon-candles" viewBox="-5.0 -10.0 110.0 135.0">
            <path d="m58.391 16.172c-2-5.1719-6.4844-11.531-7.125-12.438-0.57812-0.8125-1.9531-0.8125-2.5312 0-0.64062 0.90625-5.125 7.2656-7.125 12.438-14.422 1.9375-24.422 8.6875-24.422 16.609v46.906c0 9.6406 14.406 17.188 32.812 17.188s32.812-7.5469 32.812-17.188v-46.906c0-7.9219-10-14.672-24.422-16.609zm-8.3906-8.7656c2.8125 4.2188 6.25 10.25 6.25 12.875 0 3.4531-2.7969 6.25-6.25 6.25s-6.25-2.7969-6.25-6.25c0-2.625 3.4375-8.6562 6.25-12.875zm-7.7969 18.078c1.4062 2.1094 3.6406 3.5938 6.2344 4.0312v6.3906c0 0.875 0.70312 1.5625 1.5625 1.5625s1.5625-0.6875 1.5625-1.5625v-6.3906c2.5938-0.4375 4.8281-1.9219 6.2344-4.0312 10.297 1.375 18.562 5.4531 21.078 10.422-3.1562 6.2812-15.328 10.953-28.875 10.953s-25.703-4.6719-28.875-10.953c2.5156-4.9688 10.781-9.0469 21.078-10.422zm37.484 54.203c0 7.625-13.594 14.062-29.688 14.062s-29.688-6.4375-29.688-14.062v-39.5c5.25 5.9062 16.594 9.7969 29.688 9.7969s24.438-3.8906 29.688-9.7969z"/>
            <path d="m74.297 50.516c-0.4375-0.28125-1-0.32812-1.4844-0.125-6.4062 2.7969-14.297 4.2812-22.812 4.2812s-16.406-1.4844-22.812-4.2812c-0.48438-0.20312-1.0469-0.15625-1.4844 0.125-0.4375 0.29688-0.70312 0.78125-0.70312 1.3125v27.859c0 3.2969 9.4844 9.375 25 9.375s25-6.0781 25-9.375v-27.859c0-0.53125-0.26562-1.0156-0.70312-1.3125z"/>
        </symbol>
        <symbol id="icon-sell" viewBox="0 0 100 125">
            <path d="M29.044,70.932l21.212-9.065c0.4-0.161,0.813-0.237,1.219-0.237c1.354,0,2.632,0.848,3.093,2.23  c0.554,1.656-0.375,3.449-1.993,4.102l-9.411,3.793l1.041,2.588l8.975-3.611c6.991-3.136,12.523-8.947,14.766-16.677  c0.387-1.332,1.617-2.233,2.994-2.233c0.041,0,0.081,0.001,0.122,0.002c1.849,0.071,3.237,1.726,2.98,3.558  c-3.312,23.616-24.672,28.929-35.747,31.869L35.534,95H17.576l4.573-16.22C23.142,75.256,25.677,72.37,29.044,70.932z   M57.539,23.643l1.649-7.646c-2.309-2.064-4.18-4.334-5.596-6.779l-0.781,4.294c-1.087,5.981,1.058,12.054,5.562,16.137  c4.688,4.25,7.633,10.388,7.633,17.214c0,7.222-3.299,13.671-8.47,17.93c-0.006-0.607-0.104-1.222-0.306-1.824  c-0.828-2.479-3.141-4.146-5.755-4.146c-0.779,0-1.542,0.148-2.268,0.441l-0.027,0.011l-0.027,0.012l-17.97,7.679  c-6.648-3.859-11.242-10.917-11.609-19.021C19.242,40.62,22.304,34,27.32,29.525c4.467-3.985,6.514-10.023,5.443-15.913L31.187,5  h23.129c1.34,3.356,3.598,6.596,6.654,9.293l7.548-1.628l13.907,13.907L71.446,37.55L57.539,23.643z M61.554,16.679l-1.332,6.173  l11.224,11.224l7.504-7.504L67.727,15.348L61.554,16.679z M64.199,20.439c0.775,0,1.404-0.628,1.404-1.404s-0.628-1.404-1.404-1.404  c-0.775,0-1.404,0.628-1.404,1.404S63.424,20.439,64.199,20.439z"/>
        </symbol>
        <symbol id="icon-pottery1" viewBox="0 0 100 125">
            <path d="M22.908,42.227c-0.806,0-1.596,0.164-2.332,0.472c-0.624-2.411-0.961-4.936-0.961-7.54C19.614,18.529,33.144,5,49.773,5  c16.63,0,30.159,13.529,30.159,30.159c0,2.548-0.324,5.02-0.923,7.383c-0.615-0.206-1.26-0.315-1.916-0.315  c-0.929,0-1.822,0.208-2.626,0.593c0.755-2.423,1.171-4.993,1.171-7.661c0-14.262-11.603-25.865-25.865-25.865  c-14.262,0-25.864,11.603-25.864,25.865c0,2.586,0.387,5.083,1.097,7.441C24.345,42.358,23.638,42.227,22.908,42.227z   M26.229,46.207c-0.746-1.185-2.019-1.833-3.322-1.833c-0.734,0-1.477,0.206-2.139,0.638c-1.814,1.183-2.254,3.661-1.101,5.494  l6.507,10.335l-1.787,1.165c0,0-4.43-6.637-5.847-8.888c-4.013-6.378-5.705-16.198-3.766-25.752c0.346-1.704-0.59-3.405-2.231-3.977  v0c-0.375-0.131-0.756-0.192-1.13-0.192c-1.489,0-2.867,0.98-3.313,2.496c-6.154,20.919,1.943,41.263,11.423,52.265  c1.098,1.274,1.608,2.953,1.45,4.627L19.803,95l20.093-0.238l1.516-11.675h0c2.239-4.164,2.091-9.205-0.387-13.232  c-2.167-3.52-4.423-7.177-4.507-7.306L26.229,46.207z M61.665,61.406l3.597-5.713c-4.118,2.343-8.767,3.638-13.315,3.638  c-0.063,0-0.126,0-0.189-0.001c-6.487-0.051-12.249-2.684-16.226-7.415c-3.234-3.846-4.777-8.722-4.344-13.728  s2.79-9.545,6.636-12.779c6.201-5.214,15.488-4.411,20.701,1.79c4.044,4.81,3.421,12.013-1.389,16.057  c-1.791,1.506-4.06,2.223-6.392,2.022c-2.331-0.202-4.444-1.299-5.949-3.09c-1.143-1.359-1.688-3.083-1.535-4.852  c0.153-1.77,0.986-3.374,2.346-4.517c1.014-0.853,2.301-1.26,3.621-1.146c1.32,0.114,2.517,0.736,3.37,1.75  c1.282,1.524,1.084,3.807-0.44,5.089c-1.068,0.898-2.669,0.76-3.567-0.309c-0.169-0.201-0.165-0.41-0.131-0.543  c0.78-0.128,1.409-0.766,1.49-1.59c0.097-0.983-0.621-1.859-1.605-1.956c-1.219-0.121-2.372,0.557-3.011,1.769  c-0.789,1.497-0.586,3.311,0.517,4.623c2.168,2.579,6.03,2.912,8.609,0.745c3.035-2.551,3.428-7.096,0.876-10.131  c-1.468-1.746-3.528-2.816-5.801-3.012c-2.272-0.198-4.486,0.504-6.232,1.972c-2.091,1.758-3.372,4.225-3.608,6.947  c-0.235,2.722,0.603,5.372,2.362,7.464c4.378,5.207,12.176,5.881,17.383,1.504c6.32-5.314,7.139-14.779,1.825-21.099  c-6.484-7.711-18.032-8.71-25.744-2.226c-4.578,3.849-7.383,9.251-7.898,15.209c-0.22,2.55-0.006,5.07,0.608,7.479l10.104,16.049  l0,0c0.119,0.189,0.652,1.05,1.34,2.166c3.159,1.127,6.557,1.746,10.099,1.746c3.764,0,7.365-0.701,10.689-1.968  C61.084,62.343,61.554,61.582,61.665,61.406L61.665,61.406z M58.588,83.088l1.516,11.675L80.197,95l-1.171-12.415  c-0.158-1.675,0.352-3.353,1.45-4.627c9.48-11.002,17.577-31.346,11.423-52.265c-0.446-1.516-1.825-2.496-3.313-2.496  c-0.374,0-0.755,0.062-1.13,0.192v0c-1.642,0.572-2.577,2.274-2.231,3.977c1.939,9.554,0.247,19.373-3.766,25.752  c-1.416,2.251-5.847,8.888-5.847,8.888l-1.787-1.165l6.507-10.335c1.154-1.832,0.713-4.311-1.101-5.494  c-0.663-0.432-1.406-0.638-2.139-0.638c-1.302,0-2.576,0.649-3.322,1.833L63.482,62.55c-0.084,0.129-2.34,3.786-4.507,7.306  C56.497,73.882,56.349,78.923,58.588,83.088z"/>
        </symbol>
        <symbol id="icon-pottery2" viewBox="0 0 100 125">
            <path d="M51.406,48.594v-4.219c2.334,0,4.219-1.884,4.219-4.219c0-2.334-1.885-4.219-4.219-4.219H49.17l-6.848,6.469  c-0.588,10.126-12.952,8.222-14.395,7.292l0.895-0.359c1.617-0.661,2.827-2.067,3.22-3.769l0.197-0.816  c0.591-2.545,2.531-4.556,5.062-5.217l2.039-0.548l1.8,1.617l7.552-7.116l0.014,0.014c0.562-0.52,1.041-0.97,1.42-1.322  c-1.87-1.167-2.588-3.502-1.674-5.527c0.703-1.575,2.278-2.587,3.994-2.587c0.366,0,0.717,0.042,1.069,0.127l4.008,0.998  c2.433-2.32,12.544-11.897,18.703-17.564L73.948,5c-0.183,0.169-4.022,3.755-9.056,8.48c-2.025-0.816-4.402-0.492-6.16,0.998  L45.008,26.277c-1.097,0.956-1.237,2.602-0.295,3.712c0.422,0.506,1.013,0.816,1.631,0.914c-1.251,1.181-3.487,3.305-5.302,5.034  H17.656c-2.334,0-4.219,1.884-4.219,4.219c0,2.334,1.885,4.219,4.219,4.219v4.219c0,0-12.656,5.625-12.656,17.114  C5,79.531,20.469,95,20.469,95h28.125c0,0,15.469-15.469,15.469-29.419C64.062,54.219,51.406,48.594,51.406,48.594z M34.531,76.002  c-2.881,0-5.215-2.23-5.215-5.215c0-2.986,5.215-13.038,5.215-13.038s5.215,10.053,5.215,13.038  C39.747,73.772,37.413,76.002,34.531,76.002z M95,30.313v14.063H79.413c-2.438,0-4.834-0.637-6.951-1.846L51.336,30.453  c-1.027-0.577-1.448-1.856-0.97-2.939c0.38-0.83,1.21-1.336,2.081-1.336c0.183,0,0.366,0.014,0.563,0.07l13.176,3.291l-5.189-4.725  c2.053-1.941,5.062-4.809,8.198-7.748l13.149,13.247H95z"/>
        </symbol>
        <symbol id="icon-pottery3" viewBox="0 0 100 125">
            <path d="M51.406,48.594v-4.219c2.334,0,4.219-1.884,4.219-4.219c0-2.334-1.885-4.219-4.219-4.219H49.17l-6.848,6.469  c-0.588,10.126-12.952,8.222-14.395,7.292l0.895-0.359c1.617-0.661,2.827-2.067,3.22-3.769l0.197-0.816  c0.591-2.545,2.531-4.556,5.062-5.217l2.039-0.548l1.8,1.617l7.552-7.116l0.014,0.014c0.562-0.52,1.041-0.97,1.42-1.322  c-1.87-1.167-2.588-3.502-1.674-5.527c0.703-1.575,2.278-2.587,3.994-2.587c0.366,0,0.717,0.042,1.069,0.127l4.008,0.998  c2.433-2.32,12.544-11.897,18.703-17.564L73.948,5c-0.183,0.169-4.022,3.755-9.056,8.48c-2.025-0.816-4.402-0.492-6.16,0.998  L45.008,26.277c-1.097,0.956-1.237,2.602-0.295,3.712c0.422,0.506,1.013,0.816,1.631,0.914c-1.251,1.181-3.487,3.305-5.302,5.034  H17.656c-2.334,0-4.219,1.884-4.219,4.219c0,2.334,1.885,4.219,4.219,4.219v4.219c0,0-12.656,5.625-12.656,17.114  C5,79.531,20.469,95,20.469,95h28.125c0,0,15.469-15.469,15.469-29.419C64.062,54.219,51.406,48.594,51.406,48.594z M34.531,76.002  c-2.881,0-5.215-2.23-5.215-5.215c0-2.986,5.215-13.038,5.215-13.038s5.215,10.053,5.215,13.038  C39.747,73.772,37.413,76.002,34.531,76.002z M95,30.313v14.063H79.413c-2.438,0-4.834-0.637-6.951-1.846L51.336,30.453  c-1.027-0.577-1.448-1.856-0.97-2.939c0.38-0.83,1.21-1.336,2.081-1.336c0.183,0,0.366,0.014,0.563,0.07l13.176,3.291l-5.189-4.725  c2.053-1.941,5.062-4.809,8.198-7.748l13.149,13.247H95z"/>
        </symbol>
        <symbol id="icon-pottery4" viewBox="0 0 64 80">
            <path d="M30.15,12a9.35,9.35,0,0,1-.3-4.16,10.22,10.22,0,0,0-1.54-.76,9.09,9.09,0,0,0-6-.33,1,1,0,0,0-.56,1.44A9.09,9.09,0,0,0,26.38,12a9.9,9.9,0,0,0,3.58.69c.19,0,.37,0,.56,0A2,2,0,0,1,30.15,12Z"/>
            <path d="M36.69,1.69a1,1,0,0,0-1.44-.56,9.08,9.08,0,0,0-3.82,4.62,9.08,9.08,0,0,0-.33,6,1,1,0,0,0,1.44.56,9.09,9.09,0,0,0,3.82-4.62A9.08,9.08,0,0,0,36.69,1.69Z"/>
            <path d="M16.91,39.7l2.77,22.43a1,1,0,0,0,1,.88H43.33a1,1,0,0,0,1-.88L47.09,39.7Z"/>
            <path d="M47.75,31H33V26.41a15.15,15.15,0,0,0,7.8-4.27,14.78,14.78,0,0,0,4.41-8.7,1,1,0,0,0-1.09-1.09,14.79,14.79,0,0,0-8.7,4.41A16.4,16.4,0,0,0,33,19.85V13.18a1.92,1.92,0,0,1-2-.06v6.74a16.4,16.4,0,0,0-2.41-3.1,14.79,14.79,0,0,0-8.7-4.41,1,1,0,0,0-1.09,1.09,14.78,14.78,0,0,0,4.41,8.7A15.15,15.15,0,0,0,31,26.41V31H16.25A3.25,3.25,0,0,0,13,34.25v1.2a3.25,3.25,0,0,0,3.25,3.25h31.5A3.25,3.25,0,0,0,51,35.45v-1.2A3.25,3.25,0,0,0,47.75,31Z"/>
        </symbol>
    </defs>
</svg>