<svg xmlns="http://www.w3.org/2000/svg" version="1.1" viewBox="-5.0 -10.0 110.0 135.0">
 <path d="m58.391 16.172c-2-5.1719-6.4844-11.531-7.125-12.438-0.57812-0.8125-1.9531-0.8125-2.5312 0-0.64062 0.90625-5.125 7.2656-7.125 12.438-14.422 1.9375-24.422 8.6875-24.422 16.609v46.906c0 9.6406 14.406 17.188 32.812 17.188s32.812-7.5469 32.812-17.188v-46.906c0-7.9219-10-14.672-24.422-16.609zm-8.3906-8.7656c2.8125 4.2188 6.25 10.25 6.25 12.875 0 3.4531-2.7969 6.25-6.25 6.25s-6.25-2.7969-6.25-6.25c0-2.625 3.4375-8.6562 6.25-12.875zm-7.7969 18.078c1.4062 2.1094 3.6406 3.5938 6.2344 4.0312v6.3906c0 0.875 0.70312 1.5625 1.5625 1.5625s1.5625-0.6875 1.5625-1.5625v-6.3906c2.5938-0.4375 4.8281-1.9219 6.2344-4.0312 10.297 1.375 18.562 5.4531 21.078 10.422-3.1562 6.2812-15.328 10.953-28.875 10.953s-25.703-4.6719-28.875-10.953c2.5156-4.9688 10.781-9.0469 21.078-10.422zm37.484 54.203c0 7.625-13.594 14.062-29.688 14.062s-29.688-6.4375-29.688-14.062v-39.5c5.25 5.9062 16.594 9.7969 29.688 9.7969s24.438-3.8906 29.688-9.7969z"/>
 <path d="m74.297 50.516c-0.4375-0.28125-1-0.32812-1.4844-0.125-6.4062 2.7969-14.297 4.2812-22.812 4.2812s-16.406-1.4844-22.812-4.2812c-0.48438-0.20312-1.0469-0.15625-1.4844 0.125-0.4375 0.29688-0.70312 0.78125-0.70312 1.3125v27.859c0 3.2969 9.4844 9.375 25 9.375s25-6.0781 25-9.375v-27.859c0-0.53125-0.26562-1.0156-0.70312-1.3125z"/>
<text x="0.0" y="117.5" font-size="5.0" font-weight="bold" font-family="Arbeit Regular, Helvetica, Arial-Unicode, Arial, Sans-serif" fill="#000000">Created by Roat Studio</text><text x="0.0" y="122.5" font-size="5.0" font-weight="bold" font-family="Arbeit Regular, Helvetica, Arial-Unicode, Arial, Sans-serif" fill="#000000">from Noun Project</text></svg>