<svg xmlns="http://www.w3.org/2000/svg" version="1.1" viewBox="-5.0 -10.0 110.0 135.0">
 <path d="m66.352 65.344c-0.50391 3.8086-1.668 7.4102-3.4023 10.672h19.535c6.0156 0 10.941-4.7344 11.25-10.672z"/>
 <path d="m61.051 79.141c-3.1484 4.5625-7.4688 8.2422-12.508 10.656h33.945c6.0078 0 10.93-4.7266 11.25-10.656z"/>
 <path d="m82.484 37.781h-26.148c3.2344 2.9688 5.8633 6.582 7.6523 10.656h18.5c6.0078 0 10.93-4.7266 11.25-10.656z"/>
 <path d="m47.621 20.859h34.957c5.9648-0.046875 10.844-4.7578 11.156-10.656h-57.27c0.3125 5.8984 5.1914 10.609 11.156 10.656z"/>
 <path d="m82.484 62.219c6.0078 0 10.93-4.7266 11.25-10.656h-28.559c0.96094 3.0273 1.4883 6.25 1.4883 9.5938 0 0.35938-0.042968 0.70703-0.054687 1.0625z"/>
 <path d="m34.891 32.512c-15.793 0-28.641 12.852-28.641 28.645s12.852 28.645 28.641 28.645c15.793 0 28.645-12.852 28.645-28.645s-12.852-28.645-28.645-28.645zm0 49.363c-11.426 0-20.719-9.2969-20.719-20.719 0-11.426 9.2969-20.719 20.719-20.719 11.426 0 20.719 9.2969 20.719 20.719 0 11.426-9.2969 20.719-20.719 20.719z"/>
 <path d="m34.891 43.559c-9.7031 0-17.594 7.8945-17.594 17.594 0 9.7031 7.8945 17.594 17.594 17.594 9.7031 0 17.594-7.8945 17.594-17.594 0-9.7031-7.8945-17.594-17.594-17.594z"/>
 <path d="m82.484 23.988h-34.77c-0.03125 0-0.058594-0.003906-0.089844-0.003906h-11.156c0.10547 2.0078 0.76172 3.9141 1.875 5.5977 5.1445 0.55859 9.9219 2.3516 14.031 5.0742h30.109c6.0156 0 10.941-4.7344 11.25-10.672h-11.16c-0.03125 0-0.058594 0.003906-0.089844 0.003906z"/>
<text x="0.0" y="117.5" font-size="5.0" font-weight="bold" font-family="Arbeit Regular, Helvetica, Arial-Unicode, Arial, Sans-serif" fill="#000000">Created by Yayat</text><text x="0.0" y="122.5" font-size="5.0" font-weight="bold" font-family="Arbeit Regular, Helvetica, Arial-Unicode, Arial, Sans-serif" fill="#000000">from Noun Project</text></svg>