<svg xmlns="http://www.w3.org/2000/svg" xmlns:xlink="http://www.w3.org/1999/xlink" version="1.1" x="0px" y="0px"
     viewBox="0 0 100 125" enable-background="new 0 0 100 100" xml:space="preserve"><path d="M51.406,48.594v-4.219c2.334,0,4.219-1.884,4.219-4.219c0-2.334-1.885-4.219-4.219-4.219H49.17l-6.848,6.469  c-0.588,10.126-12.952,8.222-14.395,7.292l0.895-0.359c1.617-0.661,2.827-2.067,3.22-3.769l0.197-0.816  c0.591-2.545,2.531-4.556,5.062-5.217l2.039-0.548l1.8,1.617l7.552-7.116l0.014,0.014c0.562-0.52,1.041-0.97,1.42-1.322  c-1.87-1.167-2.588-3.502-1.674-5.527c0.703-1.575,2.278-2.587,3.994-2.587c0.366,0,0.717,0.042,1.069,0.127l4.008,0.998  c2.433-2.32,12.544-11.897,18.703-17.564L73.948,5c-0.183,0.169-4.022,3.755-9.056,8.48c-2.025-0.816-4.402-0.492-6.16,0.998  L45.008,26.277c-1.097,0.956-1.237,2.602-0.295,3.712c0.422,0.506,1.013,0.816,1.631,0.914c-1.251,1.181-3.487,3.305-5.302,5.034  H17.656c-2.334,0-4.219,1.884-4.219,4.219c0,2.334,1.885,4.219,4.219,4.219v4.219c0,0-12.656,5.625-12.656,17.114  C5,79.531,20.469,95,20.469,95h28.125c0,0,15.469-15.469,15.469-29.419C64.062,54.219,51.406,48.594,51.406,48.594z M34.531,76.002  c-2.881,0-5.215-2.23-5.215-5.215c0-2.986,5.215-13.038,5.215-13.038s5.215,10.053,5.215,13.038  C39.747,73.772,37.413,76.002,34.531,76.002z M95,30.313v14.063H79.413c-2.438,0-4.834-0.637-6.951-1.846L51.336,30.453  c-1.027-0.577-1.448-1.856-0.97-2.939c0.38-0.83,1.21-1.336,2.081-1.336c0.183,0,0.366,0.014,0.563,0.07l13.176,3.291l-5.189-4.725  c2.053-1.941,5.062-4.809,8.198-7.748l13.149,13.247H95z"/>
    <text x="0" y="115" fill="#000000" font-size="5px" font-weight="bold"
          font-family="'Helvetica Neue', Helvetica, Arial-Unicode, Arial, Sans-serif">Created by Laymik</text>
    <text x="0" y="120" fill="#000000" font-size="5px" font-weight="bold"
          font-family="'Helvetica Neue', Helvetica, Arial-Unicode, Arial, Sans-serif">from the Noun Project</text></svg>