<svg xmlns="http://www.w3.org/2000/svg" xmlns:xlink="http://www.w3.org/1999/xlink" version="1.1" x="0px" y="0px"
     viewBox="0 0 100 125" enable-background="new 0 0 100 100" xml:space="preserve"><path d="M22.908,42.227c-0.806,0-1.596,0.164-2.332,0.472c-0.624-2.411-0.961-4.936-0.961-7.54C19.614,18.529,33.144,5,49.773,5  c16.63,0,30.159,13.529,30.159,30.159c0,2.548-0.324,5.02-0.923,7.383c-0.615-0.206-1.26-0.315-1.916-0.315  c-0.929,0-1.822,0.208-2.626,0.593c0.755-2.423,1.171-4.993,1.171-7.661c0-14.262-11.603-25.865-25.865-25.865  c-14.262,0-25.864,11.603-25.864,25.865c0,2.586,0.387,5.083,1.097,7.441C24.345,42.358,23.638,42.227,22.908,42.227z   M26.229,46.207c-0.746-1.185-2.019-1.833-3.322-1.833c-0.734,0-1.477,0.206-2.139,0.638c-1.814,1.183-2.254,3.661-1.101,5.494  l6.507,10.335l-1.787,1.165c0,0-4.43-6.637-5.847-8.888c-4.013-6.378-5.705-16.198-3.766-25.752c0.346-1.704-0.59-3.405-2.231-3.977  v0c-0.375-0.131-0.756-0.192-1.13-0.192c-1.489,0-2.867,0.98-3.313,2.496c-6.154,20.919,1.943,41.263,11.423,52.265  c1.098,1.274,1.608,2.953,1.45,4.627L19.803,95l20.093-0.238l1.516-11.675h0c2.239-4.164,2.091-9.205-0.387-13.232  c-2.167-3.52-4.423-7.177-4.507-7.306L26.229,46.207z M61.665,61.406l3.597-5.713c-4.118,2.343-8.767,3.638-13.315,3.638  c-0.063,0-0.126,0-0.189-0.001c-6.487-0.051-12.249-2.684-16.226-7.415c-3.234-3.846-4.777-8.722-4.344-13.728  s2.79-9.545,6.636-12.779c6.201-5.214,15.488-4.411,20.701,1.79c4.044,4.81,3.421,12.013-1.389,16.057  c-1.791,1.506-4.06,2.223-6.392,2.022c-2.331-0.202-4.444-1.299-5.949-3.09c-1.143-1.359-1.688-3.083-1.535-4.852  c0.153-1.77,0.986-3.374,2.346-4.517c1.014-0.853,2.301-1.26,3.621-1.146c1.32,0.114,2.517,0.736,3.37,1.75  c1.282,1.524,1.084,3.807-0.44,5.089c-1.068,0.898-2.669,0.76-3.567-0.309c-0.169-0.201-0.165-0.41-0.131-0.543  c0.78-0.128,1.409-0.766,1.49-1.59c0.097-0.983-0.621-1.859-1.605-1.956c-1.219-0.121-2.372,0.557-3.011,1.769  c-0.789,1.497-0.586,3.311,0.517,4.623c2.168,2.579,6.03,2.912,8.609,0.745c3.035-2.551,3.428-7.096,0.876-10.131  c-1.468-1.746-3.528-2.816-5.801-3.012c-2.272-0.198-4.486,0.504-6.232,1.972c-2.091,1.758-3.372,4.225-3.608,6.947  c-0.235,2.722,0.603,5.372,2.362,7.464c4.378,5.207,12.176,5.881,17.383,1.504c6.32-5.314,7.139-14.779,1.825-21.099  c-6.484-7.711-18.032-8.71-25.744-2.226c-4.578,3.849-7.383,9.251-7.898,15.209c-0.22,2.55-0.006,5.07,0.608,7.479l10.104,16.049  l0,0c0.119,0.189,0.652,1.05,1.34,2.166c3.159,1.127,6.557,1.746,10.099,1.746c3.764,0,7.365-0.701,10.689-1.968  C61.084,62.343,61.554,61.582,61.665,61.406L61.665,61.406z M58.588,83.088l1.516,11.675L80.197,95l-1.171-12.415  c-0.158-1.675,0.352-3.353,1.45-4.627c9.48-11.002,17.577-31.346,11.423-52.265c-0.446-1.516-1.825-2.496-3.313-2.496  c-0.374,0-0.755,0.062-1.13,0.192v0c-1.642,0.572-2.577,2.274-2.231,3.977c1.939,9.554,0.247,19.373-3.766,25.752  c-1.416,2.251-5.847,8.888-5.847,8.888l-1.787-1.165l6.507-10.335c1.154-1.832,0.713-4.311-1.101-5.494  c-0.663-0.432-1.406-0.638-2.139-0.638c-1.302,0-2.576,0.649-3.322,1.833L63.482,62.55c-0.084,0.129-2.34,3.786-4.507,7.306  C56.497,73.882,56.349,78.923,58.588,83.088z"/>
    <text x="0" y="115" fill="#000000" font-size="5px" font-weight="bold"
          font-family="'Helvetica Neue', Helvetica, Arial-Unicode, Arial, Sans-serif">Created by Laymik</text>
    <text x="0" y="120" fill="#000000" font-size="5px" font-weight="bold"
          font-family="'Helvetica Neue', Helvetica, Arial-Unicode, Arial, Sans-serif">from the Noun Project</text></svg>