<svg xmlns="http://www.w3.org/2000/svg" data-name="Layer 1" viewBox="0 0 64 80" x="0px" y="0px">
    <title>pot</title>
    <path d="M30.15,12a9.35,9.35,0,0,1-.3-4.16,10.22,10.22,0,0,0-1.54-.76,9.09,9.09,0,0,0-6-.33,1,1,0,0,0-.56,1.44A9.09,9.09,0,0,0,26.38,12a9.9,9.9,0,0,0,3.58.69c.19,0,.37,0,.56,0A2,2,0,0,1,30.15,12Z"/>
    <path d="M36.69,1.69a1,1,0,0,0-1.44-.56,9.08,9.08,0,0,0-3.82,4.62,9.08,9.08,0,0,0-.33,6,1,1,0,0,0,1.44.56,9.09,9.09,0,0,0,3.82-4.62A9.08,9.08,0,0,0,36.69,1.69Z"/>
    <path d="M16.91,39.7l2.77,22.43a1,1,0,0,0,1,.88H43.33a1,1,0,0,0,1-.88L47.09,39.7Z"/>
    <path d="M47.75,31H33V26.41a15.15,15.15,0,0,0,7.8-4.27,14.78,14.78,0,0,0,4.41-8.7,1,1,0,0,0-1.09-1.09,14.79,14.79,0,0,0-8.7,4.41A16.4,16.4,0,0,0,33,19.85V13.18a1.92,1.92,0,0,1-2-.06v6.74a16.4,16.4,0,0,0-2.41-3.1,14.79,14.79,0,0,0-8.7-4.41,1,1,0,0,0-1.09,1.09,14.78,14.78,0,0,0,4.41,8.7A15.15,15.15,0,0,0,31,26.41V31H16.25A3.25,3.25,0,0,0,13,34.25v1.2a3.25,3.25,0,0,0,3.25,3.25h31.5A3.25,3.25,0,0,0,51,35.45v-1.2A3.25,3.25,0,0,0,47.75,31Z"/>
    <text x="0" y="79" fill="#000000" font-size="5px" font-weight="bold"
          font-family="'Helvetica Neue', Helvetica, Arial-Unicode, Arial, Sans-serif">Created by keenicon
    </text>
    <text x="0" y="84" fill="#000000" font-size="5px" font-weight="bold"
          font-family="'Helvetica Neue', Helvetica, Arial-Unicode, Arial, Sans-serif">from the Noun Project
    </text>
</svg>