<svg xmlns="http://www.w3.org/2000/svg" xmlns:xlink="http://www.w3.org/1999/xlink" version="1.1" x="0px" y="0px"
     viewBox="0 0 100 125" enable-background="new 0 0 100 100" xml:space="preserve"><path d="M29.044,70.932l21.212-9.065c0.4-0.161,0.813-0.237,1.219-0.237c1.354,0,2.632,0.848,3.093,2.23  c0.554,1.656-0.375,3.449-1.993,4.102l-9.411,3.793l1.041,2.588l8.975-3.611c6.991-3.136,12.523-8.947,14.766-16.677  c0.387-1.332,1.617-2.233,2.994-2.233c0.041,0,0.081,0.001,0.122,0.002c1.849,0.071,3.237,1.726,2.98,3.558  c-3.312,23.616-24.672,28.929-35.747,31.869L35.534,95H17.576l4.573-16.22C23.142,75.256,25.677,72.37,29.044,70.932z   M57.539,23.643l1.649-7.646c-2.309-2.064-4.18-4.334-5.596-6.779l-0.781,4.294c-1.087,5.981,1.058,12.054,5.562,16.137  c4.688,4.25,7.633,10.388,7.633,17.214c0,7.222-3.299,13.671-8.47,17.93c-0.006-0.607-0.104-1.222-0.306-1.824  c-0.828-2.479-3.141-4.146-5.755-4.146c-0.779,0-1.542,0.148-2.268,0.441l-0.027,0.011l-0.027,0.012l-17.97,7.679  c-6.648-3.859-11.242-10.917-11.609-19.021C19.242,40.62,22.304,34,27.32,29.525c4.467-3.985,6.514-10.023,5.443-15.913L31.187,5  h23.129c1.34,3.356,3.598,6.596,6.654,9.293l7.548-1.628l13.907,13.907L71.446,37.55L57.539,23.643z M61.554,16.679l-1.332,6.173  l11.224,11.224l7.504-7.504L67.727,15.348L61.554,16.679z M64.199,20.439c0.775,0,1.404-0.628,1.404-1.404s-0.628-1.404-1.404-1.404  c-0.775,0-1.404,0.628-1.404,1.404S63.424,20.439,64.199,20.439z"/>
    <text x="0" y="115" fill="#000000" font-size="5px" font-weight="bold"
          font-family="'Helvetica Neue', Helvetica, Arial-Unicode, Arial, Sans-serif">Created by Laymik</text>
    <text x="0" y="120" fill="#000000" font-size="5px" font-weight="bold"
          font-family="'Helvetica Neue', Helvetica, Arial-Unicode, Arial, Sans-serif">from the Noun Project</text></svg>